<?xml version="1.0" encoding="UTF-8" standalone="no"?>
<svg
   width="42731.352pt"
   height="28526.314pt"
   viewBox="0 0 42731.352 28526.315"
   version="1.1"
   id="svg16"
   content="%3Cmxfile%20host%3D%22app.diagrams.net%22%20modified%3D%222023-08-04T23%3A40%3A55.791Z%22%20agent%3D%22Mozilla%2F5.0%20(X11%3B%20Linux%20x86_64)%20AppleWebKit%2F537.36%20(KHTML%2C%20like%20Gecko)%20Chrome%2F115.0.0.0%20Safari%2F537.36%22%20version%3D%2221.6.6%22%20etag%3D%22OYNVLcQu0C_SIg_ZJrhm%22%3E%20%20%20%3Cdiagram%20name%3D%22Page-1%22%20id%3D%22-jWJ2TqwVZziLZpW39v0%22%3E%20%20%20%20%20%3CmxGraphModel%20dx%3D%22139%22%20dy%3D%2218%22%20grid%3D%221%22%20gridSize%3D%2210%22%20guides%3D%221%22%20tooltips%3D%221%22%20connect%3D%221%22%20arrows%3D%221%22%20fold%3D%221%22%20page%3D%221%22%20pageScale%3D%221%22%20pageWidth%3D%22100%22%20pageHeight%3D%22100%22%20math%3D%220%22%20shadow%3D%220%22%3E%20%20%20%20%20%20%20%3Croot%3E%20%20%20%20%20%20%20%20%20%3CmxCell%20id%3D%220%22%20%2F%3E%20%20%20%20%20%20%20%20%20%3CmxCell%20id%3D%221%22%20parent%3D%220%22%20%2F%3E%20%20%20%20%20%20%20%20%20%3CmxCell%20id%3D%222%22%20value%3D%22%26lt%3Bspan%20style%3D%26quot%3Bborder-color%3A%20var(--border-color)%3B%20font-size%3A%2041px%3B%26quot%3B%26gt%3B%26lt%3Bfont%20color%3D%26quot%3B%23000066%26quot%3B%20face%3D%26quot%3BPoppins%26quot%3B%20data-font-src%3D%26quot%3Bhttps%3A%2F%2Ffonts.googleapis.com%2Fcss%3Ffamily%3DPoppins%26quot%3B%20style%3D%26quot%3Bfont-size%3A%2041px%3B%26quot%3B%26gt%3BG%26lt%3B%2Ffont%26gt%3B%26lt%3B%2Fspan%26gt%3B%22%20style%3D%22text%3Bhtml%3D1%3Balign%3Dcenter%3BverticalAlign%3Dmiddle%3Bresizable%3D0%3Bpoints%3D%5B%5D%3Bautosize%3D1%3BstrokeColor%3Dnone%3BfillColor%3Dnone%3Brotation%3D0%3BfontSize%3D41%3Bcontainer%3D0%3B%22%20vertex%3D%221%22%20parent%3D%221%22%3E%20%20%20%20%20%20%20%20%20%20%20%3CmxGeometry%20x%3D%22133%22%20y%3D%22115.00000000000001%22%20width%3D%2260%22%20height%3D%2270%22%20as%3D%22geometry%22%20%2F%3E%20%20%20%20%20%20%20%20%20%3C%2FmxCell%3E%20%20%20%20%20%20%20%20%20%3CmxCell%20id%3D%223%22%20value%3D%22%26lt%3Bfont%20color%3D%26quot%3B%23000066%26quot%3B%20face%3D%26quot%3BPoppins%26quot%3B%20style%3D%26quot%3Bfont-size%3A%2041px%3B%26quot%3B%26gt%3B%26lt%3Bspan%20style%3D%26quot%3Bfont-size%3A%2041px%3B%26quot%3B%26gt%3B%26lt%3Bspan%20style%3D%26quot%3Bfont-size%3A%2041px%3B%26quot%3B%26gt%3BG%26lt%3B%2Fspan%26gt%3B%26lt%3B%2Fspan%26gt%3B%26lt%3B%2Ffont%26gt%3B%22%20style%3D%22text%3Bhtml%3D1%3Balign%3Dcenter%3BverticalAlign%3Dmiddle%3Bresizable%3D0%3Bpoints%3D%5B%5D%3Bautosize%3D1%3BstrokeColor%3Dnone%3BfillColor%3Dnone%3Brotation%3D-180%3BfontSize%3D41%3Bcontainer%3D0%3B%22%20vertex%3D%221%22%20parent%3D%221%22%3E%20%20%20%20%20%20%20%20%20%20%20%3CmxGeometry%20x%3D%22115%22%20y%3D%22113.6%22%20width%3D%2260%22%20height%3D%2270%22%20as%3D%22geometry%22%20%2F%3E%20%20%20%20%20%20%20%20%20%3C%2FmxCell%3E%20%20%20%20%20%20%20%20%20%3CmxCell%20id%3D%224%22%20value%3D%22%26lt%3Bfont%20color%3D%26quot%3B%23000066%26quot%3B%20size%3D%26quot%3B1%26quot%3B%20face%3D%26quot%3BPoppins%26quot%3B%26gt%3B%26lt%3Bb%20style%3D%26quot%3B%26quot%3B%26gt%3BGRouNdGAN%26lt%3B%2Fb%26gt%3B%26lt%3B%2Ffont%26gt%3B%22%20style%3D%22text%3Bhtml%3D1%3Balign%3Dcenter%3BverticalAlign%3Dmiddle%3Bresizable%3D0%3Bpoints%3D%5B%5D%3Bautosize%3D1%3BstrokeColor%3Dnone%3BfillColor%3Dnone%3Brotation%3D0%3BfontSize%3D18%3Bcontainer%3D0%3B%22%20vertex%3D%221%22%20parent%3D%221%22%3E%20%20%20%20%20%20%20%20%20%20%20%3CmxGeometry%20x%3D%22104%22%20y%3D%22149.6%22%20width%3D%2290%22%20height%3D%2240%22%20as%3D%22geometry%22%20%2F%3E%20%20%20%20%20%20%20%20%20%3C%2FmxCell%3E%20%20%20%20%20%20%20%20%20%3CmxCell%20id%3D%225%22%20value%3D%22%22%20style%3D%22endArrow%3Dnone%3Bhtml%3D1%3Brounded%3D0%3BstrokeWidth%3D2%3BstrokeColor%3D%23000066%3B%22%20edge%3D%221%22%20parent%3D%221%22%3E%20%20%20%20%20%20%20%20%20%20%20%3CmxGeometry%20width%3D%2250%22%20height%3D%2250%22%20relative%3D%221%22%20as%3D%22geometry%22%3E%20%20%20%20%20%20%20%20%20%20%20%20%20%3CmxPoint%20x%3D%22128%22%20y%3D%22134.72%22%20as%3D%22sourcePoint%22%20%2F%3E%20%20%20%20%20%20%20%20%20%20%20%20%20%3CmxPoint%20x%3D%22128%22%20y%3D%22164.72%22%20as%3D%22targetPoint%22%20%2F%3E%20%20%20%20%20%20%20%20%20%20%20%3C%2FmxGeometry%3E%20%20%20%20%20%20%20%20%20%3C%2FmxCell%3E%20%20%20%20%20%20%20%20%20%3CmxCell%20id%3D%226%22%20value%3D%22%22%20style%3D%22endArrow%3Dnone%3Bhtml%3D1%3Brounded%3D0%3BstrokeWidth%3D2%3BstrokeColor%3D%23000066%3B%22%20edge%3D%221%22%20parent%3D%221%22%3E%20%20%20%20%20%20%20%20%20%20%20%3CmxGeometry%20width%3D%2250%22%20height%3D%2250%22%20relative%3D%221%22%20as%3D%22geometry%22%3E%20%20%20%20%20%20%20%20%20%20%20%20%20%3CmxPoint%20x%3D%22125%22%20y%3D%22139.72%22%20as%3D%22sourcePoint%22%20%2F%3E%20%20%20%20%20%20%20%20%20%20%20%20%20%3CmxPoint%20x%3D%22125%22%20y%3D%22159.72%22%20as%3D%22targetPoint%22%20%2F%3E%20%20%20%20%20%20%20%20%20%20%20%3C%2FmxGeometry%3E%20%20%20%20%20%20%20%20%20%3C%2FmxCell%3E%20%20%20%20%20%20%20%20%20%3CmxCell%20id%3D%227%22%20value%3D%22%22%20style%3D%22endArrow%3Dnone%3Bhtml%3D1%3Brounded%3D0%3BstrokeWidth%3D2%3BstrokeColor%3D%23000066%3B%22%20edge%3D%221%22%20parent%3D%221%22%3E%20%20%20%20%20%20%20%20%20%20%20%3CmxGeometry%20width%3D%2250%22%20height%3D%2250%22%20relative%3D%221%22%20as%3D%22geometry%22%3E%20%20%20%20%20%20%20%20%20%20%20%20%20%3CmxPoint%20x%3D%22122%22%20y%3D%22144.72%22%20as%3D%22sourcePoint%22%20%2F%3E%20%20%20%20%20%20%20%20%20%20%20%20%20%3CmxPoint%20x%3D%22122%22%20y%3D%22154.72%22%20as%3D%22targetPoint%22%20%2F%3E%20%20%20%20%20%20%20%20%20%20%20%3C%2FmxGeometry%3E%20%20%20%20%20%20%20%20%20%3C%2FmxCell%3E%20%20%20%20%20%20%20%20%20%3CmxCell%20id%3D%228%22%20value%3D%22%22%20style%3D%22endArrow%3Dnone%3Bhtml%3D1%3Brounded%3D0%3BstrokeWidth%3D3%3BstrokeColor%3D%23000066%3B%22%20edge%3D%221%22%20parent%3D%221%22%3E%20%20%20%20%20%20%20%20%20%20%20%3CmxGeometry%20width%3D%2250%22%20height%3D%2250%22%20relative%3D%221%22%20as%3D%22geometry%22%3E%20%20%20%20%20%20%20%20%20%20%20%20%20%3CmxPoint%20x%3D%22128%22%20y%3D%22149.11999999999998%22%20as%3D%22sourcePoint%22%20%2F%3E%20%20%20%20%20%20%20%20%20%20%20%20%20%3CmxPoint%20x%3D%22136%22%20y%3D%22149.11999999999998%22%20as%3D%22targetPoint%22%20%2F%3E%20%20%20%20%20%20%20%20%20%20%20%3C%2FmxGeometry%3E%20%20%20%20%20%20%20%20%20%3C%2FmxCell%3E%20%20%20%20%20%20%20%3C%2Froot%3E%20%20%20%20%20%3C%2FmxGraphModel%3E%20%20%20%3C%2Fdiagram%3E%20%3C%2Fmxfile%3E%20"
   sodipodi:docname="logo.svg"
   inkscape:version="1.2.2 (732a01da63, 2022-12-09)"
   xmlns:inkscape="http://www.inkscape.org/namespaces/inkscape"
   xmlns:sodipodi="http://sodipodi.sourceforge.net/DTD/sodipodi-0.dtd"
   xmlns="http://www.w3.org/2000/svg"
   xmlns:svg="http://www.w3.org/2000/svg">
  <sodipodi:namedview
     id="namedview51"
     pagecolor="#ffffff"
     bordercolor="#000000"
     borderopacity="0.25"
     inkscape:showpageshadow="2"
     inkscape:pageopacity="0.0"
     inkscape:pagecheckerboard="0"
     inkscape:deskcolor="#d1d1d1"
     inkscape:document-units="pt"
     showgrid="false"
     inkscape:zoom="0.01"
     inkscape:cx="13150"
     inkscape:cy="10400"
     inkscape:window-width="1920"
     inkscape:window-height="1057"
     inkscape:window-x="-8"
     inkscape:window-y="-8"
     inkscape:window-maximized="1"
     inkscape:current-layer="svg16" />
  <defs
     id="defs20" />
  <path
     fill-rule="nonzero"
     fill="#000066"
     fill-opacity="1"
     d="m 38514.039,6642.2278 c -594.5,-1250.508 -1455.508,-2219.14 -2583.016,-2905.89 -1127.5,-686.75 -2439.5,-1030.125 -3936,-1030.125 -1496.511,0 -2844.398,343.375 -4043.656,1030.125 -1199.25,686.75 -2142.25,1670.757 -2829,2952.015 -686.75,1281.25 -1030.125,2762.383 -1030.125,4443.3912 0,1681 343.375,3157.008 1030.125,4428.015 686.75,1271 1629.75,2249.876 2829,2936.626 1199.258,686.75 2547.145,1030.125 4043.656,1030.125 2091,0 3813,-625.25 5166,-1875.75 1353.008,-1250.501 2142.266,-2941.754 2367.766,-5073.766 h -8548.516 v -2275.516 h 11531.282 v 2152.516 c -164,1763 -717.508,3377.383 -1660.516,4843.141 -943,1465.75 -2183.258,2624.007 -3720.766,3474.765 -1537.5,850.75 -3249.25,1276.125 -5135.25,1276.125 -1988.511,0 -3802.773,-466.375 -5442.781,-1399.125 -1640,-932.758 -2936.633,-2229.39 -3889.891,-3889.891 -953.25,-1660.507 -1429.875,-3536.265 -1429.875,-5627.265 0,-2091.0082 476.625,-3971.8912 1429.875,-5642.6412 953.258,-1670.758 2249.891,-2972.515 3889.891,-3905.265 1640.008,-932.75796 3454.27,-1399.14096 5442.781,-1399.14096 2275.508,0 4289.641,563.758 6042.391,1691.26596 1752.758,1127.5 3028.891,2716.257 3828.391,4766.265 z m 0,0"
     id="path2"
     style="fill:#5e81ac;fill-opacity:1"
     class="UnoptimicedTransforms" />
  <path
     fill-rule="nonzero"
     fill="#000066"
     fill-opacity="1"
     d="m 10913.533,15590.494 c 594.5,1250.507 1455.507,2219.14 2583.015,2905.89 1127.5,686.75 2439.5,1030.125 3936,1030.125 1496.512,0 2844.399,-343.375 4043.656,-1030.125 1199.25,-686.75 2142.25,-1670.758 2829,-2952.015 686.75,-1281.25 1030.125,-2762.383 1030.125,-4443.391 0,-1681.0002 -343.375,-3157.0082 -1030.125,-4428.0162 -686.75,-1271 -1629.75,-2249.875 -2829,-2936.625 -1199.257,-686.75 -2547.144,-1030.125 -4043.656,-1030.125 -2091,0 -3813,625.25 -5166,1875.75 -1353.008,1250.5 -2142.265,2941.754 -2367.7655,5073.766 H 18447.298 V 11931.244 H 6916.0165 V 9778.7278 c 164,-1763 717.508,-3377.383 1660.516,-4843.141 943,-1465.75 2183.2575,-2624.008 3720.7655,-3474.765 1537.5,-850.74996 3249.25,-1276.12496 5135.25,-1276.12496 1988.512,0 3802.774,466.375 5442.781,1399.12496 1640,932.757 2936.633,2229.39 3889.891,3889.89 953.25,1660.508 1429.875,3536.266 1429.875,5627.2662 0,2091.008 -476.625,3971.891 -1429.875,5642.641 -953.258,1670.757 -2249.891,2972.515 -3889.891,3905.265 -1640.007,932.758 -3454.269,1399.141 -5442.781,1399.141 -2275.508,0 -4289.64,-563.758 -6042.39,-1691.266 -1752.7585,-1127.5 -3028.8915,-2716.258 -3828.3915,-4766.265 z m 0,0"
     id="path4"
     style="fill:#5e81ac;fill-opacity:1"
     class="UnoptimicedTransforms"
     transform="matrix(1,0,0,-1,5e-4,22232.722)" />
  <path
     fill="none"
     stroke-width="1500.01"
     stroke-linecap="butt"
     stroke-linejoin="miter"
     stroke="#000066"
     stroke-opacity="1"
     stroke-miterlimit="10"
     d="M 5473.526,600 V 23100.091"
     id="path8"
     style="stroke:#5e81ac;stroke-opacity:1" />
  <path
     fill="none"
     stroke-width="1500.01"
     stroke-linecap="butt"
     stroke-linejoin="miter"
     stroke="#000066"
     stroke-opacity="1"
     stroke-miterlimit="10"
     d="M 3223.517,4350.0172 V 19350.074"
     id="path10"
     style="stroke:#5e81ac;stroke-opacity:1" />
  <path
     fill="none"
     stroke-width="1500.01"
     stroke-linecap="butt"
     stroke-linejoin="miter"
     stroke="#000066"
     stroke-opacity="1"
     stroke-miterlimit="10"
     d="m 973.505,8100.03 v 7500.031"
     id="path12"
     style="stroke:#5e81ac;stroke-opacity:1" />
  <path
     fill="none"
     stroke-width="2250.01"
     stroke-linecap="butt"
     stroke-linejoin="miter"
     stroke="#000066"
     stroke-opacity="1"
     stroke-miterlimit="10"
     d="m 5473.526,11427.043 h 6000.022"
     id="path14"
     style="stroke:#5e81ac;stroke-opacity:1" />
  <text
     xml:space="preserve"
     style="font-size:29.9999px;line-height:1.25;font-family:Poppins;-inkscape-font-specification:'Poppins, Normal';stroke-width:0.75"
     x="3168.7478"
     y="27839.561"
     id="text4231"><tspan
       id="tspan4229"
       style="stroke-width:0.75"
       x="3168.7478"
       y="27839.561">G</tspan></text>
  <g
     aria-label="GRouNdGAN"
     id="text6449"
     style="font-size:7000px;line-height:1.25;font-family:Poppins;-inkscape-font-specification:'Poppins, Normal';stroke-width:0.75">
    <path
       d="m 4112.3834,24998.314 q -203,-427 -588,-658 -385,-238 -896,-238 -511,0 -924,238 -406,231 -644,672 -230.99998,434 -230.99998,1008 0,574 230.99998,1008 238,434 644,672 413,231 924,231 714,0 1176,-427 462,-427 539,-1155 h -1946 v -518 h 2625 v 490 q -56,602 -378,1106 -322,497 -847,791 -525,287 -1169,287 -679,0 -1239,-315 -559.99998,-322 -888.99998,-889 -322,-567 -322,-1281 0,-714 322,-1281 329,-574 888.99998,-889 560,-322 1239,-322 777,0 1372,385 602,385 875,1085 z"
       style="-inkscape-font-specification:Poppins;fill:#5e81ac"
       id="path173" />
    <path
       d="m 8431.3824,28463.314 -1162,-1995 h -770 v 1995 h -637 v -4879 h 1575 q 553,0 931,189 385,189 574,511 189,322 189,735 0,504 -294,889 -287,385 -868,511 l 1225,2044 z m -1932,-2506 h 938 q 518,0 777,-252 259,-259 259,-686 0,-434 -259,-672 -252,-238 -777,-238 h -938 z"
       style="-inkscape-font-specification:Poppins;fill:#5e81ac"
       id="path175" />
    <path
       d="m 11791.381,28526.314 q -539,0 -980,-245 -434,-245 -686,-693 -244.9995,-455 -244.9995,-1050 0,-588 251.9995,-1036 259,-455 700,-693 441,-245 987,-245 546,0 987,245 441,238 693,686 259,448 259,1043 0,595 -266,1050 -259,448 -707,693 -448,245 -994,245 z m 0,-560 q 343,0 644,-161 301,-161 483,-483 189,-322 189,-784 0,-462 -182,-784 -182,-322 -476,-476 -294,-161 -637,-161 -350,0 -644,161 -287,154 -462,476 -175,322 -175,784 0,469 168,791 175,322 462,483 287,154 630,154 z"
       style="-inkscape-font-specification:Poppins;fill:#5e81ac"
       id="path177" />
    <path
       d="m 18000.377,24627.314 v 3836 h -637 v -567 q -182,294 -511,462 -322,161 -714,161 -448,0 -805,-182 -357,-189 -567,-560 -203,-371 -203,-903 v -2247 h 630 v 2163 q 0,567 287,875 287,301 784,301 511,0 805,-315 294,-315 294,-917 v -2107 z"
       style="-inkscape-font-specification:Poppins;fill:#5e81ac"
       id="path179" />
    <path
       d="m 22914.372,28463.314 h -637 l -2562,-3885 v 3885 h -637 v -4886 h 637 l 2562,3878 v -3878 h 637 z"
       style="-inkscape-font-specification:Poppins;fill:#5e81ac"
       id="path181" />
    <path
       d="m 23761.366,26531.314 q 0,-588 238,-1029 238,-448 651,-693 420,-245 938,-245 448,0 833,210 385,203 588,539 v -2030 h 644 v 5180 h -644 v -721 q -189,343 -560,567 -371,217 -868,217 -511,0 -931,-252 -413,-252 -651,-707 -238,-455 -238,-1036 z m 3248,7 q 0,-434 -175,-756 -175,-322 -476,-490 -294,-175 -651,-175 -357,0 -651,168 -294,168 -469,490 -175,322 -175,756 0,441 175,770 175,322 469,497 294,168 651,168 357,0 651,-168 301,-175 476,-497 175,-329 175,-763 z"
       style="-inkscape-font-specification:Poppins;fill:#5e81ac"
       id="path183" />
    <path
       d="m 32427.37,24998.314 q -203,-427 -588,-658 -385,-238 -896,-238 -511,0 -924,238 -406,231 -644,672 -231,434 -231,1008 0,574 231,1008 238,434 644,672 413,231 924,231 714,0 1176,-427 462,-427 539,-1155 h -1946 v -518 h 2625 v 490 q -56,602 -378,1106 -322,497 -847,791 -525,287 -1169,287 -679,0 -1239,-315 -560,-322 -889,-889 -322,-567 -322,-1281 0,-714 322,-1281 329,-574 889,-889 560,-322 1239,-322 777,0 1372,385 602,385 875,1085 z"
       style="-inkscape-font-specification:Poppins;fill:#5e81ac"
       id="path185" />
    <path
       d="m 37061.368,27378.314 h -2128 l -392,1085 h -672 l 1764,-4851 h 735 l 1757,4851 h -672 z m -182,-518 -882,-2464 -882,2464 z"
       style="-inkscape-font-specification:Poppins;fill:#5e81ac"
       id="path187" />
    <path
       d="m 42731.368,28463.314 h -637 l -2562,-3885 v 3885 h -637 v -4886 h 637 l 2562,3878 v -3878 h 637 z"
       style="-inkscape-font-specification:Poppins;fill:#5e81ac"
       id="path189" />
  </g>
</svg>
